<?xml version="1.0" encoding="utf-8"?>
<!-- Generator: Adobe Illustrator 26.0.1, SVG Export Plug-In . SVG Version: 6.00 Build 0)  -->
<svg version="1.1" id="Layer_1" xmlns="http://www.w3.org/2000/svg" xmlns:xlink="http://www.w3.org/1999/xlink" x="0px" y="0px"
	 viewBox="0 0 890 580" style="enable-background:new 0 0 890 580;" xml:space="preserve">
<g>
	<path d="M361,278.3c-5.8,3-17.4,8.1-31.1,8.4c-15.4,0.4-28.2-4.6-38.3-17.4c-8.9-11.3-14.7-29.7-15-51.4
		c-0.5-41.4,19.8-72.3,53.9-73.1c11.8-0.3,21,3,25.5,5.7l-2.9,14.7c-5.5-3.2-12.3-5.7-22.6-5.4c-24.8,0.6-40.6,22.1-40,56.9
		c0.6,35.3,16.5,55.7,40.2,55.1c8.6-0.2,14.5-2,17.5-4.2l-0.7-41.4l-20.7,0.5l-0.2-14.4l33.5-0.8L361,278.3z"/>
	<g>
		<path d="M378.5,288.7c-3.8,6.1-10.8,9.3-17.3,12c-16.5,6.8-35.4,9.3-53,4.6c-23.1-6.3-39.4-24.9-47.2-46.9
			c-10.7-31.1-10.4-68.1,4.8-97.3c15.2-29.3,45.8-44.9,78.6-40.2c8.7,1.3,16.9,3.6,24.8,8.4c0,0,11.3,26.3,11.3,26.3
			c0,0-24.2,10.5-24.2,10.5c0,0,1.6,6.3,1.6,6.3c-5.2-2.9-11.3-7-17.2-8c-20.7-4.3-37.1,6-43.4,26.1c-4.7,14.8-4.5,31.5-1.1,46.6
			c5.5,23.1,21.2,36.2,45.2,30c1.7-0.5,3.4-1.2,4.5-2c0,0-1.5,2.9-1.5,2.9l-0.7-41.4l3.6,3.4c-2.5,0.1-22.3,0.6-24.2,0.6
			c0,0-0.1-3.5-0.1-3.5c0-2.5-0.3-15.7-0.3-17.9c-0.3-0.1,35.8-0.9,37-0.9c0,0,2.4-1,2.5-1c0,0,1.2,4.4,1.2,4.4
			C369.9,235.9,375.4,262.3,378.5,288.7L378.5,288.7z M343.5,267.8c2.2-14.7,9.2-41,12.9-56.3c0,0,3.6,3.4,3.6,3.4
			c0,0-33.5,0.9-33.5,0.8c0,0,3.4-3.6,3.4-3.6l0.2,14.4l-3.6-3.4c2.4-0.1,22.4-0.6,24.2-0.6c0.1,3.1,0.7,43.3,0.8,46.8
			c-4.4,3.4-9.5,4.7-14.7,5.4c-8.8,1.2-18.1,0.2-26-4.3c-25.4-14.7-28.1-57.1-20.1-82.5c5.4-17.4,19.5-31.1,38.4-31.7
			c8.7-0.5,17.9,1.3,25.5,5.8c0,0-5.2,2.4-5.2,2.3c0,0-18.4-18.9-18.4-18.9l11.3,26.3c-2.3-1.4-7.8-2.4-11.4-2.4
			c-33.8-0.1-36.4,53.5-27.3,77c6.4,17.5,19.1,21.9,36.6,17.8c3.3-0.8,6.7-2,9.8-3.5c0,0,0.3-0.2,0.3-0.2l0.1,0c0,0,0,0,0,0
			C347.8,262,344.9,264.9,343.5,267.8L343.5,267.8z"/>
	</g>
</g>
<g>
	<path d="M396.9,239.8l-9.9,44l-13.6,0.3l32.3-139.8l15.9-0.4l37,138.1l-14,0.4L433,238.9L396.9,239.8z M430.1,224.9l-10.6-39.7
		c-2.4-9-4.1-17.2-5.7-25.2l-0.3,0c-1.4,8.3-2.9,16.8-4.7,25.3l-9.3,40.5L430.1,224.9z"/>
	<g>
		<path d="M399.1,242.5c-2.9,15.1-5.9,29.8-9.3,44.7c0,0-2.7,0.1-2.7,0.1c-1.9,0-14.8,0.4-16.4,0.4c-6-36.8,3.4-95.4,21.2-128.2
			c3.4-6.4,7.6-12.9,12.7-18.7c0,0,1.1,0,1.1,0s15.9-0.4,15.9-0.4l2.8-0.1c0,0,0.7,2.7,0.7,2.7l37,138.1c0,0,1.2,4.3,1.2,4.3
			c-4.7,0.1-16.5,0.4-21.2,0.5c0,0-0.7-2.7-0.7-2.7s-11.6-43.4-11.6-43.4l3.5,2.6C421.8,242.7,410.6,242.7,399.1,242.5L399.1,242.5z
			 M394.7,237.1c13.5-0.8,27.3-1.5,41-1.8c0,0,0.7,2.7,0.7,2.7l11.6,43.4l-3.5-2.6l14-0.4c0,0-3.3,4.4-3.3,4.4l-37-138.1
			c0,0,3.5,2.6,3.5,2.6s-15.9,0.4-15.9,0.4s3.3-2.7,3.3-2.7c1.6,6.5,2.1,12.8,2.4,19c1.6,36.6-14.6,90.2-34.7,120.9
			c0,0-3.5-4.3-3.5-4.3l13.6-0.3c0,0-3.3,2.7-3.3,2.7C387.1,267.7,390.8,252.2,394.7,237.1L394.7,237.1z"/>
		<path d="M427.3,222.8c-0.5-7.6-3.9-16-8.4-22.6c-3-4.3-7.6-7.5-11.5-10.8c-2.7-2.4-4.4-6.3-5.3-9.6c-2-6.3,3.8-13.1,6.1-18.8
			c0,0,5.7,4.6,5.7,4.6c-0.1-0.1-0.2-0.1-0.3-0.2c0,0,5.3-4.6,5.3-4.6c-2.2,2.3-3,5-3.5,8c-1.3,5.5-2.6,11-4,16.5
			c-2.1,7.9-4.4,16.6-6.2,24.5c-1.3,5.4-2.5,10.9-3.7,16.4c0,0-2-2.5-2-2.5C408.7,223.3,418,222.9,427.3,222.8L427.3,222.8z
			 M432.9,227c-11.9,0.5-24.3,0.7-36.1,0.7c0,0,0.6-2.5,0.6-2.5c3.3-13.6,6.3-27.3,8.9-41c0.9-5.5,1.7-11,2.4-16.5
			c0.5-2.9,0.6-5.7-0.7-8.6c0,0-0.4-1.1-0.4-1.1c0.7-0.5,6.3-3.8,6.8-4.3c0,0,5,5.1,5,5.1c2.3,2.4,5.7,4.5,8.3,6.8
			c5.3,4.2,5.8,9.3,5,15.4c-0.5,6.6-3.4,13.9-4.3,20.1C427.3,210.3,429.3,218.2,432.9,227L432.9,227z"/>
	</g>
</g>
<g>
	<path d="M459,286.9c-1.3,2.2-34.3-29.3-77.8-71s-81.1-77.6-79.8-79.8c1.3-2.2,37.7,29.8,81.2,71.5S460.3,284.7,459,286.9z"/>
	<path d="M463.7,289.8c-1.4,2.4-4.7,3.3-7.2,2.3c-1.3-0.5-2.7-1.4-3.8-2.1c-6.7-4.9-12.7-10.3-19-15.6c-20.7-17.9-41.2-36.1-61-55.1
		c-16.1-15.4-33.1-32.2-48.7-48.1c-6.4-6.6-12.7-13.2-19-20c-3-3.4-6.2-6.7-8.7-10.7c-4.3-7,2.9-13.9,9.8-9.4
		c7.5,5.1,13.8,11.4,20.4,17.3c33.5,31.2,65.4,63.8,98.6,95.2c9.9,9.5,19.9,18.9,29.5,28.9c2.9,3.1,5.9,6.2,8.4,9.8
		c0.5,0.8,1.2,2,1.4,3C464.7,286.7,464.4,288.6,463.7,289.8L463.7,289.8z M454.3,284c-0.9,1.3-1,3.2-0.4,4.5
		c-0.7-1.3-1.7-2.5-2.7-3.8c-33.3-40.2-71.6-76.1-110.9-110.3c-12.8-10.9-25.5-22.1-39.3-31.7c-0.5-0.3-0.9-0.5-1.2-0.7
		c0,0-0.1,0,0,0c0.1,0,0.2,0.1,0.3,0.1c4,1.3,8.1-2.4,7.6-6.4c-0.1-0.8-0.2-1.2-0.5-1.8c9.5,10.8,26.6,25.8,37.2,36
		c13,12.1,27,25.2,39.8,37.4c23.1,21.9,44.7,45.3,67.8,67.2c2.8,2.5,5.5,5.1,8.5,7.3C458.4,280.9,455.4,281.9,454.3,284L454.3,284z"
		/>
</g>
</svg>
